<?xml version="1.0" encoding="utf-8"?>
<!-- Generator: Adobe Illustrator 24.0.0, SVG Export Plug-In . SVG Version: 6.00 Build 0)  -->
<svg version="1.1" id="Layer_1" xmlns="http://www.w3.org/2000/svg" xmlns:xlink="http://www.w3.org/1999/xlink" x="0px" y="0px"
	 viewBox="0 0 1500 435" style="enable-background:new 0 0 1500 435;" xml:space="preserve">
<style type="text/css">
	.st0{fill:#37BA98;}
	.st1{fill:#154270;}
	.st2{fill:#B32025;}
	.st3{fill:#EEBF1C;}
</style>
<path class="st0" d="M82.17,239.56L0,12.26h53.35l49.04,145.13c0.88,2.43,1.87,5.36,2.98,8.78c1.1,3.43,2.21,6.79,3.31,10.11
	c1.1,3.31,1.99,6.3,2.65,8.95h1.99c0.88-2.43,1.82-5.25,2.82-8.45c0.99-3.2,1.99-6.46,2.98-9.77c1-3.31,1.93-6.41,2.82-9.28
	l49.04-145.46h51.36l-82.51,227.31H82.17z"/>
<path class="st0" d="M251.16,239.56V12.26h181.58v40.43H300.86v50.7h116.63v40.09H300.86v55.34h133.86v40.76H251.16z"/>
<path class="st0" d="M455.27,239.56l81.84-119.62L463.22,12.26h60.31l47.05,71.9h1.66l46.72-71.9h56.66l-74.22,107.69l81.84,119.62
	h-60.31l-54.67-84.16h-1.66l-54.34,84.16H455.27z"/>
<path class="st1" d="M808.15,243.54c-23.64,0-43.85-4.14-60.64-12.43c-16.79-8.28-29.55-21.15-38.27-38.6
	c-8.73-17.45-13.09-39.65-13.09-66.6c0-39.76,9.78-69.3,29.32-88.64c19.55-19.33,47.1-28.99,82.67-28.99
	c19.44,0,36.89,3.31,52.35,9.94c15.46,6.63,27.67,16.57,36.62,29.82c8.94,13.25,13.42,29.93,13.42,50.03h-49.7
	c0-10.6-2.16-19.55-6.46-26.84c-4.31-7.29-10.39-12.87-18.22-16.73c-7.84-3.86-16.96-5.8-27.34-5.8c-14.14,0-25.79,2.77-34.96,8.28
	c-9.17,5.53-15.9,13.64-20.21,24.35c-4.31,10.72-6.46,23.81-6.46,39.27v10.27c0,15.9,2.2,29.21,6.63,39.93
	c4.41,10.72,11.1,18.78,20.05,24.19c8.95,5.42,20.49,8.12,34.63,8.12c11.04,0,20.65-1.87,28.82-5.63
	c8.17-3.75,14.47-9.28,18.89-16.57c4.42-7.29,6.63-16.24,6.63-26.84h47.72c0,20.1-4.37,36.78-13.09,50.03
	c-8.73,13.25-20.82,23.14-36.28,29.66C845.7,240.28,828.03,243.54,808.15,243.54z"/>
<path class="st2" d="M945.33,39.76V0h46.06v39.76H945.33z M945.33,239.56V65.27h46.06v174.29H945.33z"/>
<path class="st2" d="M1143.8,243.54c-24.08,0-44.85-4.31-62.29-12.92c-17.45-8.61-30.81-21.65-40.09-39.1
	c-9.28-17.45-13.92-39.32-13.92-65.61c0-26.73,4.64-48.76,13.92-66.1c9.28-17.34,22.64-30.26,40.09-38.77
	c17.45-8.5,38.21-12.76,62.29-12.76c24.52,0,45.45,4.26,62.79,12.76c17.34,8.51,30.65,21.43,39.93,38.77
	c9.28,17.34,13.92,39.38,13.92,66.1c0,26.29-4.64,48.16-13.92,65.61c-9.28,17.45-22.59,30.48-39.93,39.1
	C1189.25,239.23,1168.32,243.54,1143.8,243.54z M1143.8,203.12c10.82,0,20.32-1.54,28.5-4.64c8.17-3.09,15.02-7.73,20.54-13.92
	c5.52-6.18,9.72-13.75,12.59-22.7c2.87-8.95,4.31-19.16,4.31-30.65v-10.27c0-11.71-1.44-22.09-4.31-31.15
	c-2.87-9.05-7.07-16.62-12.59-22.7c-5.53-6.07-12.37-10.66-20.54-13.75c-8.18-3.09-17.68-4.64-28.5-4.64
	c-10.6,0-19.99,1.55-28.16,4.64c-8.17,3.1-15.02,7.68-20.54,13.75c-5.53,6.08-9.67,13.64-12.43,22.7
	c-2.77,9.06-4.14,19.44-4.14,31.15v10.27c0,11.49,1.38,21.7,4.14,30.65c2.76,8.95,6.9,16.52,12.43,22.7
	c5.52,6.19,12.37,10.83,20.54,13.92C1123.81,201.57,1133.2,203.12,1143.8,203.12z"/>
<path class="st2" d="M1300.53,239.56V12.26h45.4l91.45,122.6c1.32,1.55,2.98,3.7,4.97,6.46c1.99,2.76,3.86,5.47,5.63,8.12
	c1.77,2.65,2.98,4.75,3.65,6.3h1.66c0-3.75,0-7.46,0-11.1c0-3.65,0-6.9,0-9.78V12.26H1500v227.31h-45.4l-93.44-125.58
	c-2.21-3.09-4.53-6.51-6.96-10.27c-2.43-3.75-4.2-6.63-5.3-8.62h-1.66c0,3.31,0,6.58,0,9.78c0,3.21,0,6.24,0,9.11v125.58H1300.53z"
	/>
<g>
	<path class="st3" d="M139.16,403.76V290.1h46.39c11.82,0,21.87,2.05,30.15,6.13c8.28,4.09,14.66,10.3,19.14,18.64
		c4.47,8.34,6.71,19.03,6.71,32.06c0,12.92-2.24,23.58-6.71,31.97c-4.47,8.4-10.85,14.64-19.14,18.72
		c-8.28,4.09-18.34,6.13-30.15,6.13H139.16z M163.85,383.38h21.54c4.97,0,9.39-0.72,13.25-2.15c3.87-1.44,7.07-3.56,9.61-6.38
		c2.54-2.82,4.47-6.35,5.8-10.6s1.99-9.2,1.99-14.83v-4.97c0-5.63-0.66-10.57-1.99-14.83c-1.33-4.25-3.26-7.79-5.8-10.6
		c-2.54-2.82-5.74-4.97-9.61-6.46c-3.87-1.49-8.28-2.24-13.25-2.24h-21.54V383.38z"/>
	<path class="st3" d="M315.77,405.74c-9.61,0-17.67-1.63-24.19-4.89c-6.52-3.26-11.43-8.25-14.75-14.99
		c-3.31-6.74-4.97-15.3-4.97-25.68c0-10.49,1.66-19.08,4.97-25.76c3.31-6.68,8.2-11.65,14.66-14.91c6.46-3.26,14.38-4.89,23.77-4.89
		c8.84,0,16.29,1.57,22.37,4.72c6.07,3.15,10.66,8.01,13.75,14.58c3.09,6.57,4.64,15.05,4.64,25.43v5.96h-60.8
		c0.22,5.08,1.02,9.39,2.4,12.92c1.38,3.54,3.53,6.16,6.46,7.87c2.93,1.71,6.82,2.57,11.68,2.57c2.65,0,5.05-0.33,7.21-1
		c2.15-0.66,4-1.66,5.55-2.98c1.55-1.33,2.76-2.98,3.65-4.97c0.88-1.99,1.33-4.25,1.33-6.79h22.53c0,5.52-0.99,10.33-2.98,14.41
		c-1.99,4.09-4.75,7.48-8.28,10.19c-3.54,2.71-7.76,4.75-12.67,6.13C327.17,405.05,321.74,405.74,315.77,405.74z M295.56,350.74
		h36.78c0-3.31-0.41-6.18-1.24-8.62c-0.83-2.43-1.96-4.42-3.4-5.96c-1.44-1.55-3.18-2.68-5.22-3.4c-2.05-0.72-4.34-1.08-6.87-1.08
		c-4.2,0-7.7,0.69-10.52,2.07c-2.82,1.38-4.97,3.48-6.46,6.3C297.13,342.87,296.11,346.43,295.56,350.74z"/>
	<path class="st3" d="M424.79,405.74c-6.08,0-11.55-0.66-16.4-1.99c-4.87-1.33-9.01-3.17-12.43-5.55c-3.43-2.38-6.05-5.22-7.87-8.53
		c-1.82-3.31-2.73-7.07-2.73-11.27c0-0.44,0-0.88,0-1.33c0-0.44,0.05-0.77,0.17-1h22.2c0,0.22,0,0.44,0,0.66c0,0.22,0,0.44,0,0.66
		c0.11,2.76,1,5,2.65,6.71c1.66,1.71,3.84,2.96,6.54,3.73c2.71,0.77,5.55,1.16,8.53,1.16c2.65,0,5.22-0.25,7.71-0.74
		c2.49-0.5,4.58-1.41,6.3-2.73c1.71-1.33,2.56-3.04,2.56-5.14c0-2.65-1.07-4.69-3.23-6.13c-2.16-1.44-4.97-2.59-8.45-3.48
		c-3.48-0.88-7.27-1.88-11.35-2.98c-3.75-0.88-7.51-1.9-11.27-3.06c-3.75-1.16-7.15-2.68-10.19-4.56c-3.04-1.88-5.5-4.33-7.37-7.37
		c-1.88-3.04-2.82-6.88-2.82-11.51c0-4.53,1-8.47,2.98-11.84c1.99-3.37,4.72-6.16,8.2-8.37c3.48-2.21,7.57-3.84,12.26-4.89
		c4.69-1.05,9.75-1.57,15.16-1.57c5.08,0,9.83,0.53,14.25,1.57c4.41,1.05,8.28,2.6,11.6,4.64c3.31,2.05,5.91,4.58,7.79,7.62
		c1.88,3.04,2.82,6.44,2.82,10.19c0,0.77,0,1.49,0,2.15c0,0.66-0.06,1.11-0.16,1.33h-22.04v-1.33c0-1.99-0.61-3.67-1.82-5.05
		c-1.22-1.38-2.96-2.46-5.22-3.23c-2.27-0.77-5-1.16-8.2-1.16c-2.21,0-4.23,0.17-6.05,0.5c-1.82,0.33-3.4,0.83-4.72,1.49
		c-1.33,0.66-2.35,1.47-3.07,2.4c-0.72,0.94-1.07,2.07-1.07,3.4c0,1.88,0.8,3.4,2.4,4.56c1.6,1.16,3.73,2.13,6.37,2.9
		c2.65,0.77,5.58,1.6,8.78,2.49c3.98,1.11,8.15,2.18,12.51,3.23c4.36,1.05,8.42,2.46,12.18,4.22c3.75,1.77,6.79,4.28,9.11,7.54
		c2.32,3.26,3.48,7.65,3.48,13.17c0,5.3-1.02,9.78-3.06,13.42c-2.05,3.65-4.89,6.57-8.54,8.78c-3.64,2.21-7.9,3.81-12.76,4.8
		C435.66,405.25,430.42,405.74,424.79,405.74z"/>
	<path class="st3" d="M498.18,303.85v-19.88h23.03v19.88H498.18z M498.18,403.76v-87.14h23.03v87.14H498.18z"/>
	<path class="st3" d="M573.23,434.9c-3.87,0-7.51-0.8-10.93-2.4c-3.43-1.6-6.19-3.95-8.28-7.04c-2.1-3.09-3.15-6.79-3.15-11.1
		c0-4.86,1.41-8.76,4.23-11.68c2.82-2.93,5.99-5.11,9.53-6.54c-2.54-1.44-4.61-3.31-6.21-5.63c-1.6-2.32-2.4-5.03-2.4-8.12
		c0-4.31,1.58-7.81,4.72-10.52c3.15-2.71,6.77-4.44,10.85-5.22c-4.09-2.54-7.26-5.77-9.53-9.69c-2.27-3.92-3.4-8.31-3.4-13.17
		c0-6.3,1.58-11.6,4.72-15.9c3.15-4.31,7.68-7.59,13.58-9.86c5.91-2.26,12.89-3.4,20.96-3.4c3.2,0,6.21,0.17,9.03,0.5
		c2.82,0.33,5.38,0.89,7.7,1.66c4.08-2.43,6.88-5.11,8.37-8.03c1.49-2.93,2.29-5.27,2.4-7.04h21.37c0,4.09-0.75,7.62-2.24,10.6
		c-1.49,2.98-3.62,5.44-6.38,7.37c-2.76,1.93-6.07,3.34-9.94,4.22c2.87,2.43,5.08,5.36,6.63,8.78c1.55,3.43,2.32,7.13,2.32,11.1
		c0,6.19-1.49,11.46-4.47,15.82c-2.98,4.37-7.21,7.7-12.67,10.02c-5.47,2.32-12.01,3.48-19.63,3.48h-13.25
		c-2.65,0-4.64,0.47-5.96,1.41c-1.33,0.94-1.99,2.29-1.99,4.06c0,1.44,0.58,2.68,1.74,3.73c1.16,1.05,3.06,1.57,5.71,1.57h36.28
		c7.29,0,13.11,2.24,17.48,6.71c4.36,4.47,6.54,10.19,6.54,17.15c0,5.3-1.38,9.99-4.14,14.08c-2.76,4.08-6.57,7.29-11.43,9.61
		c-4.86,2.32-10.44,3.48-16.73,3.48H573.23z M582.84,419.49h30.65c1.99,0,3.75-0.36,5.3-1.08c1.55-0.72,2.76-1.71,3.64-2.98
		c0.88-1.27,1.33-2.73,1.33-4.39c0-2.87-0.89-5.03-2.65-6.46c-1.77-1.43-3.98-2.15-6.63-2.15h-31.64c-2.65,0-4.83,0.77-6.55,2.32
		c-1.71,1.55-2.57,3.59-2.57,6.13c0,2.54,0.85,4.61,2.57,6.21C578,418.69,580.19,419.49,582.84,419.49z M597.91,358.2
		c5.41,0,9.53-1.24,12.34-3.73c2.82-2.49,4.23-6.05,4.23-10.69s-1.41-8.2-4.23-10.69c-2.82-2.49-6.93-3.73-12.34-3.73
		c-5.3,0-9.36,1.24-12.18,3.73c-2.82,2.49-4.23,6.05-4.23,10.69c0,2.98,0.61,5.58,1.82,7.79c1.21,2.21,3.04,3.87,5.47,4.97
		C591.23,357.64,594.27,358.2,597.91,358.2z"/>
	<path class="st3" d="M676.11,403.76v-87.14h19.05l1.82,11.93h1.16c1.99-2.87,4.39-5.36,7.21-7.46c2.82-2.1,5.99-3.7,9.53-4.8
		c3.53-1.1,7.4-1.66,11.6-1.66c5.74,0,10.77,1.05,15.08,3.15c4.31,2.1,7.65,5.41,10.02,9.94c2.38,4.53,3.56,10.44,3.56,17.73v58.32
		h-23.03v-54.67c0-2.76-0.33-5.11-0.99-7.04c-0.66-1.93-1.63-3.53-2.9-4.81c-1.27-1.27-2.84-2.18-4.72-2.73
		c-1.88-0.55-3.98-0.83-6.3-0.83c-3.42,0-6.52,0.83-9.28,2.49c-2.76,1.66-4.92,3.92-6.46,6.79c-1.55,2.87-2.32,6.19-2.32,9.94v50.86
		H676.11z"/>
	<path class="st3" d="M862.16,403.76L832.34,290.1h26.17l16.57,67.76c0.33,1,0.66,2.46,1,4.39c0.33,1.93,0.66,3.95,0.99,6.05
		c0.33,2.1,0.61,3.98,0.83,5.63h0.83c0.22-1.21,0.41-2.59,0.58-4.14c0.17-1.55,0.39-3.06,0.66-4.56c0.28-1.49,0.55-2.9,0.83-4.22
		c0.28-1.33,0.47-2.37,0.58-3.15l15.41-67.76h29.49l15.74,67.76c0.33,1.11,0.66,2.6,0.99,4.47c0.33,1.88,0.66,3.87,1,5.96
		c0.33,2.1,0.61,3.98,0.83,5.63h0.83c0.22-1.21,0.47-2.54,0.74-3.98c0.28-1.43,0.55-2.9,0.83-4.39c0.28-1.49,0.58-2.9,0.91-4.22
		c0.33-1.33,0.61-2.49,0.83-3.48l16.4-67.76h23.69l-29.99,113.65h-28.16l-16.73-69.91c-0.33-1.55-0.69-3.34-1.08-5.38
		c-0.39-2.04-0.75-4.06-1.08-6.05c-0.33-1.99-0.61-3.75-0.83-5.3h-0.66c-0.22,1.55-0.47,3.37-0.74,5.47
		c-0.28,2.1-0.61,4.14-0.99,6.13c-0.39,1.99-0.75,3.7-1.08,5.14l-16.57,69.91H862.16z"/>
	<path class="st3" d="M1049.54,405.74c-9.5,0-17.56-1.63-24.19-4.89s-11.66-8.28-15.08-15.08c-3.43-6.79-5.14-15.32-5.14-25.6
		c0-10.49,1.71-19.08,5.14-25.76c3.42-6.68,8.45-11.65,15.08-14.91c6.63-3.26,14.69-4.89,24.19-4.89c9.72,0,17.86,1.63,24.44,4.89
		c6.57,3.26,11.57,8.23,14.99,14.91c3.42,6.68,5.14,15.27,5.14,25.76c0,10.27-1.71,18.8-5.14,25.6
		c-3.43,6.79-8.42,11.82-14.99,15.08C1067.4,404.11,1059.26,405.74,1049.54,405.74z M1049.54,387.85c5.08,0,9.14-0.94,12.18-2.82
		c3.04-1.88,5.27-4.75,6.71-8.62c1.43-3.87,2.16-8.62,2.16-14.25v-3.98c0-5.63-0.72-10.38-2.16-14.25c-1.44-3.87-3.67-6.76-6.71-8.7
		c-3.04-1.93-7.1-2.9-12.18-2.9c-4.97,0-8.97,0.97-12.01,2.9c-3.04,1.93-5.27,4.83-6.71,8.7c-1.44,3.87-2.16,8.61-2.16,14.25v3.98
		c0,5.63,0.72,10.38,2.16,14.25c1.43,3.87,3.67,6.74,6.71,8.62C1040.57,386.91,1044.57,387.85,1049.54,387.85z"/>
	<path class="st3" d="M1127.57,403.76v-87.14h19.05l1.82,13.58h1.16c1.1-2.87,2.54-5.49,4.31-7.87c1.76-2.37,3.97-4.28,6.63-5.71
		c2.65-1.44,5.74-2.16,9.28-2.16c1.88,0,3.59,0.19,5.14,0.58c1.55,0.39,2.71,0.75,3.48,1.08v20.88h-7.12
		c-3.43,0-6.44,0.47-9.03,1.41c-2.6,0.94-4.78,2.4-6.54,4.39c-1.77,1.99-3.06,4.42-3.89,7.29c-0.83,2.87-1.24,6.24-1.24,10.11v43.57
		H1127.57z"/>
	<path class="st3" d="M1207.09,403.76V283.81h23.03v69.09l30.48-36.28h27.01l-29.82,34.13l31.31,53.02h-26.34l-20.05-36.78
		l-12.59,12.26v24.52H1207.09z"/>
	<path class="st3" d="M1348.41,405.74c-6.07,0-11.54-0.66-16.4-1.99c-4.86-1.33-9.01-3.17-12.43-5.55
		c-3.43-2.38-6.05-5.22-7.87-8.53c-1.83-3.31-2.73-7.07-2.73-11.27c0-0.44,0-0.88,0-1.33c0-0.44,0.05-0.77,0.17-1h22.2
		c0,0.22,0,0.44,0,0.66c0,0.22,0,0.44,0,0.66c0.11,2.76,0.99,5,2.65,6.71c1.66,1.71,3.84,2.96,6.54,3.73
		c2.71,0.77,5.55,1.16,8.53,1.16c2.65,0,5.22-0.25,7.7-0.74c2.49-0.5,4.58-1.41,6.3-2.73c1.71-1.33,2.57-3.04,2.57-5.14
		c0-2.65-1.08-4.69-3.23-6.13c-2.16-1.44-4.97-2.59-8.45-3.48c-3.48-0.88-7.26-1.88-11.35-2.98c-3.75-0.88-7.51-1.9-11.26-3.06
		c-3.76-1.16-7.15-2.68-10.19-4.56c-3.04-1.88-5.49-4.33-7.37-7.37c-1.88-3.04-2.82-6.88-2.82-11.51c0-4.53,0.99-8.47,2.98-11.84
		c1.99-3.37,4.72-6.16,8.2-8.37c3.48-2.21,7.57-3.84,12.26-4.89c4.69-1.05,9.75-1.57,15.16-1.57c5.08,0,9.83,0.53,14.25,1.57
		c4.42,1.05,8.28,2.6,11.6,4.64c3.31,2.05,5.91,4.58,7.79,7.62c1.88,3.04,2.82,6.44,2.82,10.19c0,0.77,0,1.49,0,2.15
		c0,0.66-0.06,1.11-0.17,1.33h-22.04v-1.33c0-1.99-0.61-3.67-1.82-5.05c-1.22-1.38-2.96-2.46-5.22-3.23c-2.27-0.77-5-1.16-8.2-1.16
		c-2.21,0-4.23,0.17-6.05,0.5c-1.82,0.33-3.4,0.83-4.72,1.49c-1.33,0.66-2.35,1.47-3.07,2.4c-0.72,0.94-1.07,2.07-1.07,3.4
		c0,1.88,0.8,3.4,2.4,4.56c1.6,1.16,3.73,2.13,6.38,2.9c2.65,0.77,5.58,1.6,8.78,2.49c3.98,1.11,8.14,2.18,12.51,3.23
		c4.36,1.05,8.42,2.46,12.18,4.22c3.75,1.77,6.79,4.28,9.11,7.54c2.32,3.26,3.48,7.65,3.48,13.17c0,5.3-1.02,9.78-3.06,13.42
		c-2.04,3.65-4.89,6.57-8.53,8.78c-3.65,2.21-7.9,3.81-12.76,4.8C1359.29,405.25,1354.04,405.74,1348.41,405.74z"/>
</g>
</svg>
